<?xml version="1.0" standalone="no"?>
<!DOCTYPE svg PUBLIC "-//W3C//DTD SVG 20010904//EN"
 "http://www.w3.org/TR/2001/REC-SVG-20010904/DTD/svg10.dtd">
<svg version="1.0" xmlns="http://www.w3.org/2000/svg"
 width="376.000000pt" height="376.000000pt" viewBox="0 0 376.000000 376.000000"
 preserveAspectRatio="xMidYMid meet">
<metadata>
Created by potrace 1.14, written by Peter Selinger 2001-2017
</metadata>
<g transform="translate(0.000000,376.000000) scale(0.100000,-0.100000)"
fill="#000000" stroke="none">
<path d="M10 3690 c0 -33 3 -61 8 -61 4 -1 32 -2 62 -3 l55 -2 -1 51 c-1 27
-2 56 -3 63 -1 8 -20 12 -61 12 l-60 0 0 -60z"/>
<path d="M262 3688 l3 -63 50 -1 c28 0 55 1 61 3 7 3 10 27 9 61 l-2 57 -62 3
-62 3 3 -63z"/>
<path d="M510 3687 l0 -63 153 1 152 0 3 63 3 62 -156 0 -155 0 0 -63z"/>
<path d="M1399 3729 c-19 -19 -20 -28 -14 -87 4 -37 12 -83 19 -103 l13 -37
-68 -11 c-203 -33 -372 -181 -441 -382 -19 -58 -21 -88 -24 -339 -2 -260 -1
-277 18 -307 11 -18 25 -33 31 -33 7 -1 -4 -9 -24 -20 -50 -26 -113 -98 -134
-153 -23 -61 -17 -165 13 -223 30 -58 101 -118 165 -138 l54 -17 1 -106 0
-106 186 -186 186 -186 0 -158 c0 -99 -4 -157 -10 -157 -6 0 -142 -54 -303
-120 -160 -66 -455 -186 -655 -268 -199 -81 -372 -156 -382 -165 -19 -16 -20
-30 -20 -197 0 -167 1 -181 20 -200 20 -20 33 -20 1850 -20 1817 0 1830 0
1850 20 20 20 20 33 20 635 0 602 0 615 -20 635 -19 19 -33 20 -355 20 l-335
0 -203 -202 c-112 -112 -206 -209 -208 -217 -4 -12 -31 -4 -125 35 l-119 51
-3 153 -3 154 186 186 186 187 2 103 c2 80 5 104 17 110 98 45 136 69 165 103
95 110 84 279 -24 380 -26 24 -58 48 -71 52 l-24 8 21 16 c40 33 42 48 38 326
-2 237 -5 277 -22 332 -65 200 -223 347 -420 388 -37 8 -80 15 -95 15 -20 0
-34 12 -61 48 -64 89 -165 156 -282 187 -46 12 -118 15 -317 15 -248 0 -259
-1 -279 -21z m551 -113 c97 -18 190 -83 250 -175 33 -53 53 -64 110 -66 212
-8 376 -136 430 -335 7 -28 12 -129 12 -278 l0 -235 -31 -29 -32 -30 -29 29
-29 28 -3 223 c-4 270 4 257 -133 247 -49 -3 -106 -8 -125 -10 -19 -2 -66 -7
-105 -10 -38 -3 -86 -7 -105 -9 -198 -21 -298 -24 -430 -12 -52 5 -108 10
-125 11 -16 2 -62 6 -101 9 -39 4 -85 8 -103 11 -17 2 -76 7 -130 10 -147 11
-141 21 -141 -251 l0 -216 -31 -30 -31 -31 -30 30 -30 30 0 244 c0 222 2 249
22 304 65 186 211 289 427 299 77 4 100 9 110 23 18 23 16 64 -3 91 -23 34
-54 126 -44 132 14 9 379 5 430 -4z m-509 -761 c13 -2 65 -6 115 -10 50 -3
104 -8 121 -10 27 -3 176 -17 198 -18 11 0 164 13 210 18 16 2 66 6 110 9 44
4 96 8 115 11 120 15 190 16 191 3 0 -7 1 -92 1 -188 0 -195 -3 -185 77 -269
l51 -53 0 -312 0 -311 -267 -266 -268 -266 -220 1 -220 1 -262 264 -263 264 0
316 0 315 49 47 c81 78 79 72 79 274 0 99 0 184 1 189 1 7 114 2 182 -9z
m-433 -690 c-1 -80 -5 -148 -10 -151 -9 -6 -51 18 -74 41 -37 36 -50 112 -29
163 15 35 26 48 65 74 47 32 48 28 48 -127z m1792 128 c42 -29 52 -42 65 -88
26 -84 -13 -164 -92 -189 -21 -7 -21 -6 -21 144 0 160 2 165 48 133z m820
-1102 c4 -1 5 -1034 1 -1051 -1 -4 -841 -5 -862 -1 -4 0 -7 154 -7 341 l1 340
167 0 c218 0 204 -13 207 204 1 88 2 163 2 166 1 4 475 5 491 1z m-1740 -121
l271 0 49 46 c28 26 50 43 51 38 1 -10 1 -154 0 -170 -1 -6 -36 -35 -78 -65
-43 -29 -126 -88 -185 -131 l-108 -77 -187 133 -188 133 1 84 c1 46 2 88 3 93
1 5 23 -12 51 -38 l49 -46 271 0z m1122 -85 l-4 -40 -74 -1 c-41 0 -74 2 -74
5 0 3 33 38 73 79 l72 73 5 -38 c3 -21 4 -56 2 -78z m-1388 -237 c94 -67 184
-132 199 -145 62 -51 67 -49 273 102 151 110 231 165 241 165 6 0 30 -8 54
-19 24 -10 90 -37 146 -60 l102 -43 0 -303 c0 -226 -3 -304 -12 -307 -7 -2
-568 -4 -1247 -4 l-1235 1 0 99 c-1 99 8 126 39 126 7 0 26 6 42 14 80 38
1197 494 1213 495 7 1 91 -54 185 -121z"/>
<path d="M1899 2368 c-29 -57 -85 -169 -125 -251 l-74 -147 55 -27 c30 -15 56
-25 59 -22 2 2 58 113 124 246 89 177 118 244 109 251 -7 5 -31 19 -54 31
l-43 21 -51 -102z"/>
<path d="M1422 2320 c-80 -79 -102 -106 -102 -128 0 -21 22 -50 103 -130 l103
-102 44 45 44 45 -72 72 -72 72 70 71 70 71 -43 42 -44 43 -101 -101z"/>
<path d="M2192 2377 l-43 -44 70 -69 70 -69 -72 -73 -72 -72 46 -45 45 -45
102 103 c72 74 102 111 102 128 0 22 -71 102 -177 201 l-29 28 -42 -43z"/>
<path d="M1570 1694 l0 -64 60 0 c33 0 60 3 61 8 5 52 2 112 -6 113 -5 1 -34
2 -62 4 l-53 2 0 -63z"/>
<path d="M1818 1704 c-1 -30 -1 -59 0 -64 2 -6 30 -10 63 -10 54 0 59 2 60 23
4 73 3 97 -1 98 -3 0 -30 2 -62 4 l-56 3 -4 -54z"/>
<path d="M2069 1728 c-5 -101 -6 -98 61 -98 l60 0 0 63 0 62 -60 1 c-59 0 -60
0 -61 -28z"/>
<path d="M3254 941 c-2 -2 -4 -31 -4 -63 l0 -58 125 0 125 0 0 63 0 62 -121 0
c-66 0 -122 -2 -125 -4z"/>
<path d="M2879 688 c0 -5 -1 -28 -1 -53 0 -25 1 -49 1 -55 1 -5 28 -10 61 -10
65 0 62 -3 62 65 0 62 2 60 -62 60 -33 0 -60 -3 -61 -7z"/>
<path d="M3125 633 l0 -63 63 0 62 0 0 63 0 63 -62 0 -63 -1 0 -62z"/>
<path d="M3375 636 l1 -61 62 -3 63 -3 -3 63 -3 62 -60 1 -61 1 1 -60z"/>
<path d="M2877 441 c-2 -5 -1 -75 2 -109 1 -10 30 -12 124 -10 l122 3 2 61 1
61 -124 0 c-69 0 -126 -3 -127 -6z"/>
<path d="M3250 384 l0 -62 125 -1 125 -2 0 64 0 64 -125 0 -125 -1 0 -62z"/>
<path d="M1819 429 c0 -11 -1 -32 -1 -49 0 -16 1 -36 1 -44 1 -9 19 -14 61
-15 51 -1 60 1 61 16 0 10 1 37 2 61 1 23 0 43 -3 43 -3 1 -31 3 -62 4 -50 2
-58 0 -59 -16z"/>
<path d="M2942 3688 l3 -63 60 0 61 -1 -2 56 c-1 30 -2 58 -3 63 0 4 -28 7
-61 7 l-61 0 3 -62z"/>
<path d="M3190 3687 l0 -63 60 0 c64 1 62 -1 62 61 1 67 3 65 -62 65 l-60 0 0
-63z"/>
<path d="M3439 3745 c0 -3 -1 -21 -1 -40 0 -89 -16 -80 150 -79 81 1 150 2
155 3 4 0 7 28 7 61 l0 60 -155 0 c-85 0 -155 -2 -156 -5z"/>
<path d="M10 3440 c0 -33 3 -61 8 -61 25 -4 354 -3 360 1 4 3 7 31 7 63 l0 57
-187 0 -188 0 0 -60z"/>
<path d="M510 3438 l0 -63 93 0 93 0 -1 60 0 60 -93 3 -92 3 0 -63z"/>
<path d="M2940 3437 l0 -62 188 0 188 0 -2 55 c-1 30 -2 58 -3 63 -1 4 -84 7
-186 7 l-185 0 0 -63z"/>
<path d="M3440 3438 l5 -63 87 0 c50 0 89 4 91 10 2 6 3 33 3 60 l-1 50 -95 3
-95 3 5 -63z"/>
<path d="M12 3188 l3 -62 110 -1 c61 0 116 1 123 3 8 3 12 25 12 63 l0 59
-125 0 -126 0 3 -62z"/>
<path d="M388 3248 c0 -2 -2 -29 -3 -60 -2 -62 -4 -60 60 -60 68 0 65 -3 65
62 l0 60 -60 0 c-33 0 -61 -1 -62 -2z"/>
<path d="M633 3190 c0 -35 5 -60 11 -61 50 -5 102 -2 108 6 4 6 8 34 8 63 l0
52 -64 0 -63 0 0 -60z"/>
<path d="M3064 3193 c1 -32 4 -60 8 -63 5 -4 110 -5 166 -1 8 1 12 20 12 61
l0 60 -93 0 -94 0 1 -57z"/>
<path d="M3379 3248 c-1 -2 -2 -29 -3 -60 -2 -47 0 -58 13 -59 9 0 37 -1 64
-2 l47 -2 0 63 0 62 -60 0 c-33 0 -60 -1 -61 -2z"/>
<path d="M3625 3188 l0 -63 60 1 60 1 3 61 3 62 -63 0 -63 0 0 -62z"/>
<path d="M71 2566 l2 -64 62 1 63 1 -1 63 -1 63 -63 0 -63 0 1 -64z"/>
<path d="M321 2565 l2 -62 63 0 62 0 -1 64 -1 64 -64 -2 -63 -2 2 -62z"/>
<path d="M570 2566 l0 -63 95 1 96 0 -2 63 -2 63 -94 0 -93 0 0 -64z"/>
<path d="M3065 2568 l1 -63 62 -1 62 -1 0 63 0 64 -63 0 -64 0 2 -62z"/>
<path d="M3318 2628 c0 -2 -2 -31 -3 -64 l-2 -61 62 0 62 0 2 62 2 62 -61 2
c-33 1 -61 0 -62 -1z"/>
<path d="M3563 2567 l-1 -63 94 -1 94 -1 0 64 0 64 -93 0 -93 0 -1 -63z"/>
<path d="M139 2378 c-1 -2 -2 -30 -3 -64 l-2 -60 90 0 c89 0 91 1 96 25 3 14
3 42 2 63 l-4 38 -89 0 c-49 0 -89 -1 -90 -2z"/>
<path d="M448 2373 c-3 -7 -3 -71 1 -109 1 -8 154 -13 181 -6 5 2 5 58 1 110
-1 13 -177 18 -183 5z"/>
<path d="M3129 2370 c-1 -5 -1 -26 -1 -45 0 -79 -8 -73 94 -71 l92 1 -1 40
c-2 94 8 85 -93 85 -53 0 -90 -4 -91 -10z"/>
<path d="M3437 2338 c1 -24 2 -52 2 -64 1 -19 6 -20 94 -20 l92 1 0 60 0 60
-95 3 -95 3 2 -43z"/>
<path d="M10 2067 l0 -63 153 1 152 0 5 25 c3 13 3 41 2 62 l-4 38 -154 0
-154 0 0 -63z"/>
<path d="M449 2115 c-1 -8 -1 -31 -1 -50 0 -19 0 -41 1 -48 1 -9 19 -13 61
-13 l60 1 0 62 0 63 -60 0 c-46 0 -60 -3 -61 -15z"/>
<path d="M3190 2067 l0 -62 155 0 155 0 0 62 0 63 -155 0 -155 0 0 -63z"/>
<path d="M3628 2118 c-2 -7 -4 -35 -4 -63 l1 -49 63 -1 62 -2 0 64 0 63 -59 0
c-38 0 -60 -4 -63 -12z"/>
<path d="M14 1441 c-2 -2 -4 -31 -4 -63 l0 -59 62 3 63 3 1 50 c0 28 -2 55 -5
60 -6 10 -108 15 -117 6z"/>
<path d="M260 1383 l0 -63 63 0 63 0 -2 58 c-1 31 -2 59 -3 62 0 3 -28 5 -61
5 l-60 0 0 -62z"/>
<path d="M514 1441 c-2 -2 -4 -31 -4 -63 l0 -58 155 0 156 0 -3 63 -3 62 -148
0 c-82 0 -151 -2 -153 -4z"/>
<path d="M20 1192 c-5 -2 -10 -30 -10 -63 l0 -59 187 2 187 3 1 60 1 60 -178
0 c-98 0 -182 -1 -188 -3z"/>
<path d="M510 1133 l0 -63 93 0 92 0 1 63 0 62 -93 0 -93 0 0 -62z"/>
<path d="M824 1191 c-2 -2 -4 -31 -4 -63 l0 -58 63 0 63 0 -1 62 0 62 -58 0
c-32 1 -61 -1 -63 -3z"/>
<path d="M21 942 c-6 -2 -11 -30 -11 -63 l0 -59 125 0 126 0 -3 63 -3 62 -112
0 c-61 0 -116 -1 -122 -3z"/>
<path d="M389 945 c-1 0 -2 -28 -3 -62 l-2 -63 63 0 63 0 0 60 c0 33 -3 61 -7
61 -7 2 -111 5 -114 4z"/>
</g>
</svg>
